<svg width="40" height="40" viewBox="0 0 40 40" fill="none" xmlns="http://www.w3.org/2000/svg">
<path d="M34.5158 32.1498L28.8491 26.4998C30.6775 24.1705 31.6695 21.2942 31.6658 18.3331C31.6658 15.696 30.8838 13.1181 29.4187 10.9255C27.9537 8.73284 25.8713 7.02387 23.4349 6.0147C20.9986 5.00553 18.3177 4.74149 15.7313 5.25596C13.1449 5.77043 10.7691 7.0403 8.90439 8.905C7.03969 10.7697 5.76982 13.1455 5.25535 15.7319C4.74088 18.3183 5.00492 20.9992 6.01409 23.4355C7.02326 25.8719 8.73223 27.9543 10.9249 29.4194C13.1175 30.8844 15.6954 31.6664 18.3325 31.6664C21.2936 31.6701 24.1699 30.6781 26.4991 28.8498L32.1492 34.5164C32.3041 34.6726 32.4884 34.7966 32.6915 34.8812C32.8946 34.9659 33.1125 35.0094 33.3325 35.0094C33.5525 35.0094 33.7703 34.9659 33.9734 34.8812C34.1765 34.7966 34.3609 34.6726 34.5158 34.5164C34.672 34.3615 34.796 34.1772 34.8806 33.9741C34.9653 33.771 35.0088 33.5531 35.0088 33.3331C35.0088 33.1131 34.9653 32.8952 34.8806 32.6921C34.796 32.489 34.672 32.3047 34.5158 32.1498ZM8.33248 18.3331C8.33248 16.3553 8.91897 14.4219 10.0178 12.7774C11.1166 11.1329 12.6784 9.85118 14.5056 9.0943C16.3329 8.33742 18.3436 8.13939 20.2834 8.52524C22.2232 8.91109 24.005 9.8635 25.4036 11.262C26.8021 12.6606 27.7545 14.4424 28.1403 16.3822C28.5262 18.322 28.3282 20.3327 27.5713 22.1599C26.8144 23.9872 25.5327 25.549 23.8882 26.6478C22.2437 27.7466 20.3103 28.3331 18.3325 28.3331C15.6803 28.3331 13.1368 27.2795 11.2614 25.4042C9.38605 23.5288 8.33248 20.9853 8.33248 18.3331Z" fill="#8A817C"/>
</svg>
